Results
version=1
nRows=19
nColumns=24
inDegrees=yes
endheader
time	pelvis_tilt	pelvis_list	pelvis_rotation	pelvis_tx	pelvis_ty	pelvis_tz	hip_flexion_r	hip_adduction_r	hip_rotation_r	knee_angle_r	ankle_angle_r	subtalar_angle_r	mtp_angle_r	hip_flexion_l	hip_adduction_l	hip_rotation_l	knee_angle_l	ankle_angle_l	subtalar_angle_l	mtp_angle_l	lumbar_extension	lumbar_bending	lumbar_rotation
      0.80433333	     -4.76690072	     -1.22392214	     -0.20915412	     -0.34317641	      0.99898681	      0.33118758	     18.00309943	      4.82961554	      0.94462916	    -24.07483712	     10.73531556	    -10.66816595	      1.69091287	     16.39385202	     -2.36404810	     -2.94343346	    -69.20700993	     -7.95225385	     -6.54370710	      8.44321631	     -8.47838441	      7.46401476	     -0.91991816
      0.80850000	     -4.74137278	     -1.09697292	     -0.19536385	     -0.33800712	      1.00005557	      0.33145557	     17.46094463	      4.72363868	      1.02889150	    -23.69792722	     10.81487694	    -10.70084472	      1.67975237	     16.97653555	     -2.31199734	     -3.05547577	    -69.20089638	     -7.47825431	     -6.94280243	      8.39054641	     -8.50127621	      7.26796154	     -0.80082718
      0.81266667	     -4.64762209	     -0.97676799	     -0.21580482	     -0.33285013	      1.00123543	      0.33180529	     16.81884873	      4.64783421	      1.20618189	    -23.25653384	     10.80657869	    -10.87614880	      1.63718943	     17.46839233	     -2.27947146	     -3.20470383	    -69.12250741	     -7.17482221	     -7.47280441	      8.19128434	     -8.66296672	      6.98067644	     -0.30126802
      0.81683333	     -4.56967899	     -0.85026089	     -0.23096156	     -0.32766873	      1.00237080	      0.33211783	     16.19555639	      4.55396279	      1.34478039	    -22.82239188	     10.82477096	    -10.98714533	      1.58942297	     17.96257282	     -2.23404010	     -3.34676467	    -68.99015285	     -6.77710016	     -7.91281264	      7.96719605	     -8.77634037	      6.73402808	      0.04558148
      0.82100000	     -4.54215585	     -0.73802697	     -0.25352892	     -0.32250339	      1.00338284	      0.33242648	     15.62826258	      4.47476155	      1.48719932	    -22.38827889	     10.82458997	    -11.07558214	      1.43549441	     18.50825628	     -2.20387463	     -3.48596780	    -68.82897037	     -6.29249937	     -8.23159665	      7.23839967	     -8.84314016	      6.49909607	      0.51222087
      0.82516667	     -4.47637625	     -0.56810392	     -0.27351235	     -0.31730660	      1.00444965	      0.33267263	     15.03444533	      4.31973567	      1.58326198	    -21.99349690	     10.87719180	    -11.12354373	      1.41330725	     18.98403188	     -2.09781394	     -3.64024738	    -68.57155688	     -5.91520591	     -8.73082196	      7.14806075	     -8.91062362	      6.25149699	      0.56669465
      0.82933333	     -4.40656103	     -0.43421353	     -0.30151815	     -0.31211258	      1.00551072	      0.33296100	     14.40401437	      4.21450121	      1.73478118	    -21.52430343	     10.89921708	    -11.24706265	      0.77916555	     19.44918198	     -2.03426905	     -3.78587379	    -68.27574155	     -5.53412880	     -9.13034671	      4.45280667	     -9.00529317	      5.98336869	      0.94965342
      0.83350000	     -4.32116662	     -0.27092459	     -0.32030636	     -0.30691917	      1.00655285	      0.33318632	     13.77606806	      4.05883195	      1.81270284	    -21.09550923	     10.92633226	    -11.24143986	      0.76624225	     19.87813353	     -1.92647679	     -3.92157511	    -67.91247857	     -5.10791471	     -9.48968319	      4.44102311	     -9.13011406	      5.71956586	      1.11379102
      0.83766667	     -4.24098135	     -0.11101542	     -0.34754459	     -0.30169626	      1.00755460	      0.33340748	     13.14019353	      3.90862602	      1.91143422	    -20.63980312	     10.97136506	    -11.28898286	      0.74312980	     20.29715680	     -1.82534941	     -4.06962985	    -67.49538610	     -4.75028906	     -9.84564610	      4.40254750	     -9.21302448	      5.45214052	      1.43119639
      0.84183333	     -4.17813880	      0.04594002	     -0.37437780	     -0.29648700	      1.00849941	      0.33361421	     12.52823575	      3.75733559	      1.99630487	    -20.19087677	     10.99492524	    -11.32233332	      0.71648620	     20.72363562	     -1.72086565	     -4.20524642	    -67.03144010	     -4.35034245	    -10.15583490	      4.35066861	     -9.29274095	      5.19145340	      1.69563507
      0.84600000	     -4.13124058	      0.19787736	     -0.39699405	     -0.29130179	      1.00936737	      0.33377898	     11.94245600	      3.60516082	      2.06104962	    -19.75611931	     11.00162066	    -11.32794982	      0.69558553	     21.15858144	     -1.60953113	     -4.32146385	    -66.52581151	     -3.91136612	    -10.43684509	      4.31027379	     -9.36227486	      4.95717778	      1.87704693
      0.85016667	     -4.07341243	      0.36302459	     -0.41697043	     -0.28608663	      1.01024408	      0.33392970	     11.33256894	      3.43658711	      2.13096552	    -19.29831903	     11.02923858	    -11.35091649	      0.66920924	     21.55971908	     -1.47924166	     -4.43427988	    -65.94975857	     -3.52801142	    -10.67770485	      4.25230501	     -9.43376667	      4.70061484	      2.12131457
      0.85433333	     -3.99193096	      0.50502005	     -0.43412287	     -0.28086543	      1.01109457	      0.33407353	     10.69344604	      3.28940773	      2.17611603	    -18.83003067	     11.06474702	    -11.36892892	      0.63294628	     21.92343520	     -1.37510296	     -4.54270093	    -65.33247896	     -3.13932422	    -10.88366375	      4.16785636	     -9.51834459	      4.45600779	      2.38987075
      0.85850000	     -3.95834210	      0.64851470	     -0.45011142	     -0.27566692	      1.01182386	      0.33418431	     10.11857956	      3.13634211	      2.21033731	    -18.38385924	     11.08544261	    -11.37550393	      0.59365228	     22.32952745	     -1.25841035	     -4.63447822	    -64.67326450	     -2.73264723	    -11.05001585	      4.07591589	     -9.55797629	      4.22840709	      2.60855027
      0.86266667	     -3.89782443	      0.79522295	     -0.45922085	     -0.27046565	      1.01255508	      0.33426364	      9.51374561	      2.97484299	      2.22723281	    -17.93569974	     11.10485714	    -11.36377830	      0.55653744	     22.68875828	     -1.12739595	     -4.70934991	    -63.95768059	     -2.32562784	    -11.18267642	      3.98964182	     -9.62801713	      4.01066127	      2.78973923
      0.86683333	     -3.90335580	      0.92523636	     -0.46249449	     -0.26527913	      1.01312801	      0.33432137	      8.98927210	      2.82775474	      2.21947296	    -17.50185613	     11.10987372	    -11.32959432	      0.53478950	     23.11472217	     -1.01001022	     -4.77116218	    -63.21327521	     -1.90982231	    -11.30477210	      3.94369837	     -9.61359673	      3.80078249	      2.90321277
      0.87100000	     -3.83131862	      1.05231073	     -0.47062630	     -0.26006274	      1.01379044	      0.33436694	      8.36402391	      2.68439389	      2.23420331	    -17.03580989	     11.15581217	    -11.32653796	      0.48561848	     23.42912584	     -0.88843213	     -4.82290473	    -62.39751733	     -1.54933968	    -11.35744944	      3.82627104	     -9.70635930	      3.59755278	      3.16764351
      0.87516667	     -3.78235695	      1.17726231	     -0.47071064	     -0.25486274	      1.01436948	      0.33437919	      7.77389740	      2.53686095	      2.21376070	    -16.58662906	     11.17089396	    -11.29578483	      0.43735450	     23.75685184	     -0.75868780	     -4.85489397	    -61.53836837	     -1.16734423	    -11.39108001	      3.71478261	     -9.76253387	      3.40593027	      3.33600461
      0.87933333	     -3.75218143	      1.29080452	     -0.47305929	     -0.24966915	      1.01486458	      0.33437552	      7.20739944	      2.40125343	      2.19674189	    -16.14222381	     11.18017711	    -11.25322789	      0.38171088	     24.09189983	     -0.63411264	     -4.87253580	    -60.63834874	     -0.79040220	    -11.40374222	      3.58609798	     -9.80742611	      3.23145757	      3.50529460
